<?xml version="1.0" encoding="UTF-8" standalone="no"?>
<svg width="84px" height="154px" viewBox="0 0 84 154" version="1.1" xmlns="http://www.w3.org/2000/svg" xmlns:xlink="http://www.w3.org/1999/xlink">
    <!-- Generator: Sketch 3.6.1 (26313) - http://www.bohemiancoding.com/sketch -->
    <title>leaf-svg</title>
    <desc>Created with Sketch.</desc>
    <defs></defs>
    <g id="Page-1" stroke="none" stroke-width="1" fill="none" fill-rule="evenodd" stroke-linecap="round">
        <g id="leaf-svg" transform="translate(-21.000000, 2.000000)" stroke-width="4.09655174" stroke="#446063">
            <g id="Group">
                <g id="cd-leaf">
                    <path d="M53.9602345,100.136388 L74.1202345,79.9440807" id="cd-leaf-vein-2" transform="translate(64.040235, 90.040235) rotate(26.000000) translate(-64.040235, -90.040235) "></path>
                    <path d="M69.9602345,68.1363884 L90.1202345,47.9440807" id="cd-leaf-vein-1" transform="translate(80.040235, 58.040235) rotate(26.000000) translate(-80.040235, -58.040235) "></path>
                    <path d="M136.325793, 136.325793 27.9261956, 100.532514 27.9261956,63.3440724 C60.6932931, 26.1556306 60.6932931, 1.3519993 60.6932931, 1.3519993 C41.9489663, 41.9489663" id="cd-leaf-left" transform="translate(44.309744, 68.838896) scale(-1, 1) rotate(-26.000000) translate(-44.309744, -68.838896) "></path>
                    <path d="M64.9210868,1.98107544 C64.9210868,1.98107544 100.714149,41.2196857 100.714149,78.4081819 C100.714149,115.596678 78.7892729,137.630159 78.7892729,137.630159" id="cd-leaf-right" transform="translate(82.817618, 69.805617) rotate(26.000000) translate(-82.817618, -69.805617) "></path>
                    <path d="M96,0.65700984 L24,149.657012" id="cd-leaf-stem"></path>
                </g>
            </g>
        </g>
    </g>
</svg>